<?xml version="1.0" standalone="no"?>
<!DOCTYPE svg PUBLIC "-//W3C//DTD SVG 20010904//EN"
 "http://www.w3.org/TR/2001/REC-SVG-20010904/DTD/svg10.dtd">
<svg version="1.0" xmlns="http://www.w3.org/2000/svg"
 width="1000.000000pt" height="1000.000000pt" viewBox="0 0 1000.000000 1000.000000"
 preserveAspectRatio="xMidYMid meet">
<metadata>
Created by potrace 1.11, written by Peter Selinger 2001-2013
</metadata>
<g transform="translate(0.000000,1000.000000) scale(0.100000,-0.100000)"
fill="#000000" stroke="none">
<path d="M5363 5644 c-19 -22 -48 -68 -62 -103 -15 -36 -32 -66 -37 -68 -5 -2
-20 17 -33 42 -25 47 -52 70 -96 81 l-28 7 7 -43 c6 -37 3 -49 -20 -82 -15
-21 -45 -53 -66 -69 -43 -34 -45 -42 -22 -99 20 -50 38 -51 98 -5 l46 35 6
-28 c4 -15 13 -39 21 -54 12 -26 12 -28 -14 -42 -16 -7 -47 -19 -70 -26 -62
-19 -42 -33 36 -27 62 5 101 -4 101 -22 0 -14 -97 -51 -134 -51 -45 0 -47 -18
-8 -61 20 -22 38 -32 60 -33 18 0 32 -4 32 -7 0 -17 -109 -82 -193 -114 -48
-18 -56 -39 -27 -70 38 -40 53 -39 137 9 43 26 81 46 84 46 4 0 10 -21 14 -47
8 -56 26 -86 62 -102 70 -32 410 -38 498 -9 53 18 74 54 57 101 -7 18 -12 50
-12 71 0 20 -7 51 -17 69 l-16 32 -16 -51 c-36 -108 -81 -138 -236 -156 -67
-8 -108 -8 -163 1 -81 14 -92 25 -84 85 4 32 10 40 40 53 20 8 70 17 111 20
86 6 111 16 111 42 0 49 -64 63 -172 37 -32 -7 -58 -10 -58 -7 0 18 32 46 86
74 40 22 60 39 62 54 4 28 -32 53 -79 53 -25 0 -39 5 -43 16 -9 23 -5 25 66
31 70 6 102 26 95 59 -3 17 4 25 30 38 18 9 39 27 45 41 10 22 8 30 -11 55
-25 35 -21 38 53 42 69 4 82 27 39 70 -32 32 -33 32 -85 21 -29 -6 -55 -9 -57
-7 -2 1 6 15 18 30 16 20 18 31 10 45 -14 27 -51 49 -93 56 -33 5 -40 2 -73
-33z m37 -75 c-7 -21 -24 -48 -36 -60 -29 -27 -33 -93 -7 -121 16 -17 18 -17
59 7 49 29 68 18 31 -19 -16 -16 -32 -22 -48 -19 -17 3 -41 -8 -84 -41 -74
-56 -79 -45 -35 75 17 46 38 107 46 134 9 29 29 62 47 79 37 34 46 23 27 -35z"/>
<path d="M3525 5569 c-158 -65 -406 -314 -506 -511 -93 -183 -74 -350 46 -408
85 -41 196 -20 321 61 116 76 311 279 268 279 -4 0 -34 -26 -69 -58 -225 -211
-444 -253 -473 -92 -18 100 27 219 140 372 117 160 312 324 361 305 25 -10 21
-58 -9 -98 -14 -19 -32 -49 -39 -67 -25 -59 -132 -172 -111 -117 11 30 -21 14
-66 -32 -98 -101 -124 -172 -72 -195 41 -19 99 20 222 147 77 79 126 121 170
145 60 32 77 50 47 50 -40 0 -4 22 113 68 133 53 237 80 266 69 46 -18 30 -56
-73 -182 -120 -147 -139 -163 -221 -186 -41 -11 -83 -18 -93 -15 -26 7 -77
-45 -77 -77 0 -32 20 -48 64 -50 20 -1 36 -3 36 -5 0 -2 -19 -31 -41 -64 -35
-52 -40 -65 -33 -87 17 -48 38 -37 98 53 73 110 90 123 174 131 37 3 79 8 95
10 l27 5 -24 -48 c-31 -61 -49 -128 -41 -152 8 -26 41 -26 82 0 30 18 32 23
28 62 -4 32 1 55 18 88 22 45 22 45 83 50 l61 5 51 67 c28 37 47 70 43 72 -4
3 -31 8 -59 12 -29 3 -52 8 -52 11 0 2 40 64 90 138 87 129 112 192 84 202
-12 4 -87 -90 -197 -249 -72 -103 -67 -100 -177 -114 l-54 -6 24 30 c14 16 53
63 88 103 81 96 106 147 103 213 -2 70 -22 86 -111 86 -77 0 -237 -38 -341
-80 -71 -29 -79 -28 -79 1 0 10 -12 31 -26 48 -21 26 -33 31 -67 30 -23 0 -64
-9 -92 -20z"/>
<path d="M6120 5559 c0 -5 14 -24 30 -42 17 -19 30 -39 30 -44 0 -11 -65 -73
-135 -130 -48 -39 -33 -35 100 27 50 23 113 50 140 60 52 18 62 32 51 76 -4
16 -19 31 -42 40 -38 16 -174 26 -174 13z"/>
<path d="M6607 5516 c-13 -14 -53 -37 -91 -52 -37 -16 -76 -37 -87 -49 -36
-36 -93 -127 -162 -260 -66 -125 -68 -128 -61 -80 3 27 15 72 25 100 24 64 24
97 -1 120 -29 26 -83 14 -132 -30 -40 -37 -94 -65 -123 -65 -11 0 -15 10 -15
36 0 44 -17 36 -26 -12 -8 -41 18 -107 50 -130 38 -26 71 -17 111 29 l36 42
-4 -145 c-5 -139 -4 -147 19 -186 24 -43 49 -61 59 -44 3 6 8 31 9 57 5 59 84
303 130 399 42 89 76 117 127 109 42 -7 67 3 117 47 55 47 62 16 14 -64 -16
-28 -119 -88 -150 -88 -9 0 -23 -7 -33 -16 -14 -13 -15 -21 -7 -45 7 -19 6
-45 -1 -79 -6 -28 -11 -83 -11 -123 0 -125 43 -165 190 -176 204 -17 400 26
400 86 0 8 -11 33 -24 56 -14 23 -32 69 -42 102 l-18 60 -8 -65 c-16 -116 -71
-145 -283 -145 -101 0 -126 3 -149 18 -25 17 -27 23 -21 55 22 130 77 201 182
241 71 26 87 41 78 70 -7 22 6 52 41 94 13 16 24 37 24 46 0 31 -93 111 -128
111 -7 0 -23 -11 -35 -24z"/>
<path d="M3452 4417 c-31 -33 -30 -96 1 -125 27 -26 73 -29 105 -6 25 17 29
34 7 34 -8 0 -15 -4 -15 -10 0 -15 -46 -23 -68 -11 -29 15 -38 66 -18 96 19
28 57 33 80 10 16 -17 36 -20 36 -6 0 17 -44 41 -75 41 -20 0 -40 -9 -53 -23z"/>
<path d="M3710 4355 c0 -50 4 -85 10 -85 6 0 10 18 10 40 l0 40 50 0 50 0 0
-40 c0 -29 4 -40 15 -40 12 0 15 16 15 85 0 69 -3 85 -15 85 -10 0 -15 -11
-15 -35 l0 -35 -50 0 -50 0 0 35 c0 19 -4 35 -10 35 -6 0 -10 -35 -10 -85z"/>
<path d="M4040 4437 c0 -3 -16 -42 -35 -86 -23 -55 -30 -81 -21 -81 7 0 18 11
24 25 10 20 19 25 51 25 33 0 40 -4 45 -25 4 -14 13 -25 21 -25 11 0 12 5 6
23 -44 109 -61 142 -75 145 -9 2 -16 1 -16 -1z m40 -84 c0 -7 -11 -13 -25 -13
-29 0 -28 -2 -14 40 l12 33 13 -24 c7 -13 13 -30 14 -36z"/>
<path d="M4260 4355 c0 -50 4 -85 10 -85 6 0 10 29 10 67 l0 67 47 -67 c26
-37 53 -67 60 -67 10 0 13 21 13 85 0 50 -4 85 -10 85 -6 0 -10 -29 -10 -67
l0 -68 -47 67 c-27 37 -54 68 -60 68 -10 0 -13 -24 -13 -85z"/>
<path d="M4556 4409 c-30 -35 -32 -58 -11 -98 22 -43 78 -56 109 -25 15 14 16
14 16 0 0 -9 5 -16 10 -16 6 0 10 23 10 50 l0 50 -35 0 c-19 0 -35 -4 -35 -10
0 -5 11 -10 25 -10 15 0 25 -6 25 -14 0 -18 -38 -46 -61 -46 -25 0 -49 33 -49
68 0 53 43 77 92 51 27 -14 38 -1 14 17 -34 25 -81 18 -110 -17z"/>
<path d="M4830 4355 l0 -85 65 0 c37 0 65 4 65 10 0 6 -25 10 -55 10 -54 0
-55 0 -55 30 0 29 1 30 50 30 28 0 50 5 50 10 0 6 -22 10 -50 10 -47 0 -50 2
-50 25 0 24 3 25 55 25 30 0 55 5 55 10 0 6 -28 10 -65 10 l-65 0 0 -85z"/>
<path d="M5480 4355 l0 -85 65 0 c37 0 65 4 65 10 0 6 -25 10 -55 10 -54 0
-55 0 -55 30 0 29 1 30 50 30 28 0 50 5 50 10 0 6 -22 10 -50 10 -47 0 -50 2
-50 25 0 24 3 25 55 25 30 0 55 5 55 10 0 6 -28 10 -65 10 l-65 0 0 -85z"/>
<path d="M5720 4435 c0 -3 14 -42 31 -86 37 -96 52 -99 84 -14 36 97 38 105
23 105 -7 0 -24 -30 -37 -67 l-24 -67 -19 43 c-10 24 -21 54 -24 67 -5 20 -34
36 -34 19z"/>
<path d="M5990 4355 l0 -85 65 0 c37 0 65 4 65 10 0 6 -25 10 -55 10 -57 0
-59 1 -49 38 5 18 13 22 50 22 24 0 44 5 44 10 0 6 -20 10 -45 10 -41 0 -45 2
-45 25 0 23 3 25 50 25 28 0 50 5 50 10 0 6 -28 10 -65 10 l-65 0 0 -85z"/>
<path d="M6250 4355 c0 -69 3 -85 15 -85 12 0 15 14 15 62 l0 62 46 -62 c64
-86 74 -83 74 23 0 68 -3 85 -15 85 -10 0 -15 -16 -17 -62 l-3 -61 -43 61
c-60 86 -72 83 -72 -23z"/>
<path d="M5250 4360 c0 -5 23 -10 50 -10 28 0 50 5 50 10 0 6 -22 10 -50 10
-27 0 -50 -4 -50 -10z"/>
</g>
</svg>
